#!OML:ASF F:\VICON\USERDATA\INSTALL\rory3\rory3.ASF
:FULLY-SPECIFIED
:DEGREES
36
root 4.51689 17.6779 1.70141 22.2443 1.81341 -4.13048
lowerback -8.19635 -0.481843 4.66204
upperback -14.197 -0.333347 5.09199
thorax -10.7019 -0.309448 2.92276
lowerneck -3.95967 19.7039 13.7198
upperneck 9.23029 25.0905 2.73467
head 4.69387 12.9089 0.500214
rclavicle 6.95746e-015 -4.77083e-015
rhumerus -10.0144 -24.3415 23.2239
rradius 123.62
rwrist -58.3998
rhand -5.40425 -48.0789
rfingers 7.12502
rthumb 20.405 -77.0269
lclavicle 6.95746e-015 -4.77083e-015
lhumerus 33.0561 33.5529 -10.7678
lradius 29.9918
lwrist 49.5666
lhand -32.1346 -14.4946
lfingers 7.12502
lthumb -5.3787 15.4171
rfemur -5.81097 5.76865 -3.14898
rtibia -2.54444e-014
rfoot -23.891 -26.4758
rtoes 50.4899
lfemur -20.8516 -2.08176 -25.2455
ltibia 13.5019
lfoot -12.9995 8.47143
ltoes 9.28237
37
root 4.51616 17.6779 1.70194 22.2209 1.75354 -4.09095
lowerback -8.23728 -0.486338 4.59585
upperback -14.1818 -0.34436 5.07883
thorax -10.6576 -0.309012 2.9433
lowerneck -3.88467 19.6235 13.9976
upperneck 9.22537 25.01 2.37456
head 4.75711 12.8602 0.368951
rclavicle 3.12092e-014 -1.90833e-014
rhumerus -9.99289 -24.4065 23.2396
rradius 123.628
rwrist -58.5848
rhand -5.22519 -48.0562
rfingers 7.12502
rthumb 20.577 -76.9856
lclavicle 3.12092e-014 -1.90833e-014
lhumerus 33.0299 33.5683 -10.7625
lradius 29.9889
lwrist 49.369
lhand -31.8636 -14.3831
lfingers 7.12502
lthumb -5.11705 15.5351
rfemur -5.80171 5.8146 -3.21374
rtibia -3.18055e-015
rfoot -23.2296 -26.9725
rtoes 50.0008
lfemur -20.825 -2.01894 -25.31
ltibia 13.4848
lfoot -13.0207 8.42885
ltoes 9.33702
38
root 4.51497 17.6777 1.70255 22.1551 1.76179 -4.17531
lowerback -8.19226 -0.45628 4.67211
upperback -14.1646 -0.301079 5.09063
thorax -10.6664 -0.294323 2.91357
lowerneck -3.75131 19.4818 14.2367
upperneck 9.10744 24.8672 1.96871
head 4.77314 12.775 0.207933
rclavicle -1.78906e-015 -1.59028e-014
rhumerus -9.97449 -24.3914 23.1811
rradius 123.576
rwrist -58.4295
rhand -4.89702 -48.0104
rfingers 7.12502
rthumb 20.8923 -76.9053
lclavicle -1.78906e-015 -1.59028e-014
lhumerus 33.3745 33.9114 -10.2372
lradius 29.8694
lwrist 48.8162
lhand -31.6893 -14.4774
lfingers 7.12502
lthumb -4.94872 15.4448
rfemur -5.73603 5.86577 -3.10214
rtibia -1.59028e-014
rfoot -23.7169 -26.5705
rtoes 50.2997
lfemur -20.7399 -2.06055 -25.1955
ltibia 13.4674
lfoot -13.0306 8.47758
ltoes 9.48768
39
root 4.5152 17.6781 1.70198 22.1254 1.7804 -4.25317
lowerback -8.16618 -0.437178 4.77333
upperback -14.1705 -0.272827 5.10488
thorax -10.6921 -0.289766 2.87378
lowerneck -3.67589 19.46 14.1795
upperneck 9.05004 24.8591 1.94679
head 4.73894 12.7677 0.194289
rclavicle -5.96354e-016 -7.95139e-015
rhumerus -9.91938 -24.3486 23.0512
rradius 123.551
rwrist -58.2764
rhand -4.94863 -47.9172
rfingers 7.12502
rthumb 20.8428 -76.8177
lclavicle -5.96354e-016 -7.95139e-015
lhumerus 33.518 34.0297 -9.99773
lradius 29.8481
lwrist 48.6233
lhand -31.6141 -14.5195
lfingers 7.12502
lthumb -4.87608 15.4044
rfemur -6.11558 5.89206 -2.97759
rtibia 0.7475
rfoot -23.641 -26.2127
rtoes 50.2118
lfemur -20.7087 -2.09333 -25.0974
ltibia 13.4541
lfoot -12.9881 8.52354
ltoes 9.4466
40
root 4.51257 17.6796 1.69583 22.1631 1.70407 -4.22872
lowerback -8.18785 -0.4222 4.70522
upperback -14.1712 -0.253614 5.10784
thorax -10.6789 -0.272987 2.91406
lowerneck -3.60963 19.4816 14.0728
upperneck 8.94027 24.9103 1.93922
head 4.6844 12.7869 0.191854
rclavicle 1.64991e-014 -2.38542e-014
rhumerus -9.9155 -24.4843 23.1016
rradius 123.561
rwrist -58.3775
rhand -4.85108 -47.8908
rfingers 7.12502
rthumb 20.9365 -76.7809
lclavicle 1.64991e-014 -2.38542e-014
lhumerus 33.3024 33.8232 -10.2612
lradius 29.9458
lwrist 48.8351
lhand -31.8452 -14.6853
lfingers 7.12502
lthumb -5.09931 15.2333
rfemur -6.54853 5.93594 -3.01164
rtibia 1.35829
rfoot -24.2266 -25.4267
rtoes 50.5394
lfemur -20.8045 -2.06563 -25.1308
ltibia 13.4848
lfoot -12.9218 8.5579
ltoes 9.19088
41
root 4.50725 17.6821 1.68216 22.1954 1.58443 -4.19522
lowerback -8.15116 -0.385281 4.57527
upperback -14.1225 -0.203669 5.09365
thorax -10.64 -0.235449 2.968
lowerneck -3.71452 19.5263 13.9247
upperneck 8.84424 24.9625 1.96941
head 4.65053 12.806 0.221324
rclavicle 2.78299e-014 -4.13472e-014
rhumerus -10.0834 -24.6073 23.3071
rradius 123.598
rwrist -58.3868
rhand -4.64933 -47.8913
rfingers 7.12502
rthumb 21.1303 -76.7599
lclavicle 2.78299e-014 -4.13472e-014
lhumerus 33.3233 33.9517 -10.2169
lradius 29.9473
lwrist 48.6727
lhand -32.0275 -14.9297
lfingers 7.12502
lthumb -5.27526 14.9846
rfemur -6.95714 6.01654 -3.06845
rtibia 1.82024
rfoot -24.8716 -24.725
rtoes 51.0248
lfemur -20.9259 -2.11216 -25.1431
ltibia 13.5107
lfoot -12.8014 8.72627
ltoes 9.08219
42
root 4.5058 17.6843 1.67366 22.192 1.55184 -4.26857
lowerback -8.13364 -0.373816 4.6125
upperback -14.0932 -0.188245 5.11227
thorax -10.6168 -0.230352 2.96632
lowerneck -3.7202 19.5353 13.9281
upperneck 8.8248 24.9819 1.89157
head 4.65648 12.8114 0.202242
rclavicle 3.57812e-015 -2.06736e-014
rhumerus -10.188 -24.5326 23.4031
rradius 123.664
rwrist -58.3737
rhand -4.82517 -47.9228
rfingers 7.12502
rthumb 20.9614 -76.8101
lclavicle 3.57812e-015 -2.06736e-014
lhumerus 33.3049 34.0033 -10.2262
lradius 29.9234
lwrist 48.4357
lhand -31.9956 -14.9676
lfingers 7.12502
lthumb -5.24452 14.9475
rfemur -7.365 6.07485 -2.97722
rtibia 2.44115
rfoot -24.6882 -24.5723
rtoes 51.0677
lfemur -20.9557 -2.13927 -25.0495
ltibia 13.4893
lfoot -12.7288 8.86625
ltoes 8.91079
43
root 4.50689 17.6833 1.67307 22.1351 1.55242 -4.2578
lowerback -8.13171 -0.417675 4.61604
upperback -14.0973 -0.246983 5.12249
thorax -10.6218 -0.259631 2.97645
lowerneck -3.49817 19.5175 14.0808
upperneck 8.81494 24.9986 1.7434
head 4.65757 12.8184 0.12954
rclavicle -2.8625e-014 6.20208e-014
rhumerus -10.0199 -24.4943 23.2469
rradius 123.664
rwrist -58.4494
rhand -4.65983 -48.01
rfingers 7.12502
rthumb 21.1202 -76.8796
lclavicle -2.8625e-014 6.20208e-014
lhumerus 33.0631 33.7307 -10.5448
lradius 29.9486
lwrist 48.4353
lhand -31.9806 -14.9469
lfingers 7.12502
lthumb -5.22998 14.9686
rfemur -7.47809 6.09332 -2.97418
rtibia 2.76199
rfoot -24.5395 -24.5236
rtoes 50.9725
lfemur -20.8846 -2.07989 -25.0879
ltibia 13.496
lfoot -12.7643 8.82861
ltoes 8.72579
44
root 4.50398 17.6819 1.67308 22.0376 1.53783 -4.22359
lowerback -8.06188 -0.475467 4.5417
upperback -14.0975 -0.318002 5.137
thorax -10.6597 -0.28672 3.03589
lowerneck -3.3346 19.6089 13.9456
upperneck 8.85417 25.1293 2.0265
head 4.59868 12.8944 0.212146
rclavicle 1.19271e-015 -3.02153e-014
rhumerus -9.70383 -24.4888 22.8734
rradius 123.571
rwrist -58.3936
rhand -4.49022 -48.0129
rfingers 7.12502
rthumb 21.2831 -76.8643
lclavicle 1.19271e-015 -3.02153e-014
lhumerus 32.9986 33.61 -10.6178
lradius 29.9362
lwrist 48.3503
lhand -32.1129 -15.0294
lfingers 7.12502
lthumb -5.35777 14.8829
rfemur -7.35768 6.13501 -2.98685
rtibia 2.72129
rfoot -25.0396 -24.1279
rtoes 51.1721
lfemur -20.8048 -2.15254 -25.0925
ltibia 13.547
lfoot -12.8309 8.85599
ltoes 8.9374
45
root 4.49837 17.684 1.66804 21.9709 1.53919 -4.33259
lowerback -7.95188 -0.483838 4.56836
upperback -14.0829 -0.318169 5.18655
thorax -10.7082 -0.286224 3.07704
lowerneck -3.43755 19.7429 13.5165
upperneck 8.96316 25.2702 2.56163
head 4.53452 12.9796 0.415777
rclavicle 7.35503e-015 -6.36111e-015
rhumerus -9.53299 -24.4357 22.5874
rradius 123.465
rwrist -58.1594
rhand -4.66748 -47.8968
rfingers 7.12502
rthumb 21.1129 -76.7673
lclavicle 7.35503e-015 -6.36111e-015
lhumerus 33.1553 33.7115 -10.4111
lradius 29.8704
lwrist 48.1348
lhand -32.2787 -14.8771
lfingers 7.12502
lthumb -5.5178 15.0311
rfemur -7.34654 6.20471 -2.82998
rtibia 2.74026
rfoot -25.2564 -23.9723
rtoes 51.2816
lfemur -20.7831 -2.26209 -24.9083
ltibia 13.5651
lfoot -12.8232 8.97946
ltoes 9.14844
46
root 4.49569 17.6865 1.66171 21.9026 1.54348 -4.4146
lowerback -7.8176 -0.468876 4.62092
upperback -14.0791 -0.285997 5.20705
thorax -10.7849 -0.274241 3.07287
lowerneck -3.47999 19.7641 13.3363
upperneck 8.99601 25.2928 2.69732
head 4.51314 12.9934 0.473706
rclavicle 5.96354e-015 -7.95139e-015
rhumerus -9.52563 -24.3833 22.537
rradius 123.421
rwrist -58.0204
rhand -4.62805 -47.8687
rfingers 7.12502
rthumb 21.1508 -76.7349
lclavicle 5.96354e-015 -7.95139e-015
lhumerus 33.285 33.7735 -10.2433
lradius 29.8303
lwrist 47.9257
lhand -32.4183 -14.7466
lfingers 7.12502
lthumb -5.65259 15.158
rfemur -7.47533 6.26043 -2.7094
rtibia 3.02575
rfoot -24.7558 -24.3912
rtoes 50.9838
lfemur -20.7228 -2.17242 -24.8259
ltibia 13.5372
lfoot -12.7644 8.9612
ltoes 9.07101
47
root 4.49489 17.6865 1.65904 21.8819 1.51274 -4.39816
lowerback -7.78152 -0.465167 4.59849
upperback -14.1152 -0.27633 5.19555
thorax -10.8487 -0.268073 3.07555
lowerneck -3.21425 19.7263 13.4574
upperneck 8.89816 25.2941 2.5331
head 4.47753 12.9886 0.387311
rclavicle -2.18663e-015 -2.38542e-014
rhumerus -9.53563 -24.2533 22.576
rradius 123.468
rwrist -57.9712
rhand -4.78269 -47.94
rfingers 7.12502
rthumb 21.0022 -76.8228
lclavicle -2.18663e-015 -2.38542e-014
lhumerus 33.3279 33.7285 -10.1765
lradius 29.8491
lwrist 47.7585
lhand -32.6749 -15.0706
lfingers 7.12502
lthumb -5.90037 14.8272
rfemur -7.61946 6.29105 -2.7209
rtibia 3.32094
rfoot -25.0375 -23.9167
rtoes 51.2034
lfemur -20.6859 -2.07934 -24.8706
ltibia 13.5128
lfoot -12.7766 8.89516
ltoes 9.06829
